# AST/ASF file generated using VICON BodyLanguage
# -----------------------------------------------
:version 1.10
:name VICON
:units
  mass 1.0
  length 0.45
  angle deg
:documentation
   .ast/.asf automatically generated from VICON data using
   VICON BodyBuilder and BodyLanguage model FoxedUp or BRILLIANT.MOD
:root
   order TX TY TZ RX RY RZ
   axis XYZ
   position 0 0 0  
   orientation 0 0 0 
:bonedata
  begin
     id 1 
     name lhipjoint
     direction 0.611804 -0.747784 0.257906 
     length 2.29243 
     axis 0 0 0  XYZ
  end
  begin
     id 2 
     name lfemur
     direction 0.34202 -0.939693 0  
     length 7.31159  
     axis 0 0 20  XYZ
    dof rx ry rz
    limits (-160.0 20.0)
           (-70.0 70.0)
           (-60.0 70.0)
  end
  begin
     id 3 
     name ltibia
     direction 0.34202 -0.939693 0   
     length 7.33391   
     axis 0 0 20   XYZ
    dof rx
    limits (-10.0 170.0)
  end
  begin
     id 4 
     name lfoot
     direction 0.122263 -0.335914 0.933924   
     length 1.76083   
     axis -90 7.62852e-016 20   XYZ
    dof rx rz
    limits (-45.0 90.0)
           (-70.0 20.0)
  end
  begin
     id 5 
     name ltoes
     direction 1.53533e-011 -4.2177e-011 1   
     length 0.879206   
     axis -90 7.62852e-016 20   XYZ
    dof rx
    limits (-90.0 20.0)
  end
  begin
     id 6 
     name rhipjoint
     direction -0.646469 -0.721248 0.248754   
     length 2.37677  
     axis 0 0 0  XYZ 
  end
  begin
     id 7 
     name rfemur
     direction -0.34202 -0.939693 0   
     length 7.18623   
     axis 0 0 -20   XYZ
    dof rx ry rz
    limits (-160.0 20.0)
           (-70.0 70.0)
           (-70.0 60.0)
  end
  begin
     id 8 
     name rtibia
     direction -0.34202 -0.939693 0   
     length 7.36567   
     axis 0 0 -20   XYZ
    dof rx
    limits (-10.0 170.0)
 end
 begin
     id 9 
     name rfoot
     direction -0.126681 -0.348054 0.928876   
     length 1.71902  
     axis -90 -7.62852e-016 -20   XYZ
    dof rx rz
    limits (-45.0 90.0)
           (-20.0 70.0)
  end
  begin
     id 10 
     name rtoes
     direction -1.53551e-011 -4.21898e-011 1   
     length 0.857792   
     axis -90 -7.62852e-016 -20   XYZ
    dof rx
    limits (-90.0 20.0)
  end
  begin
     id 11 
     name lowerback
     direction 0.0106509 0.999778 0.0181844   
     length 2.07668   
     axis 0 0 0   XYZ
    dof rx ry rz
    limits (-20.0 45.0)
           (-30.0 30.0)
           (-30.0 30.0)
  end
  begin
     id 12 
     name upperback
     direction -0.00456018 0.999989 -0.000590935   
     length 2.08011   
     axis 0 0 0   XYZ
    dof rx ry rz
    limits (-20.0 45.0)
           (-30.0 30.0)
           (-30.0 30.0)
  end
  begin
     id 13 
     name thorax
     direction -0.00910382 0.999916 -0.00923765   
     length 2.07397   
     axis 0 0 0   XYZ
    dof rx ry rz
    limits (-20.0 45.0)
           (-30.0 30.0)
           (-30.0 30.0)
  end
  begin
     id 14 
     name lowerneck
     direction 0.00171967 0.99778 0.0665733   
     length 1.67556   
     axis 0 0 0   XYZ
    dof rx ry rz
    limits (-20.0 45.0)
           (-30.0 30.0)
           (-30.0 30.0)
  end
  begin
     id 15 
     name upperneck
     direction -0.0143166 0.991302 -0.130828   
     length 1.68462   
     axis 0 0 0   XYZ
    dof rx ry rz
    limits (-20.0 45.0)
           (-30.0 30.0)
           (-30.0 30.0)
  end
  begin
     id 16
     name head
     direction -0.00606378 0.998665 -0.0512995  
     length 1.69269  
     axis 0 0 0   XYZ
    dof rx ry rz
    limits (-20.0 45.0)
           (-30.0 30.0)
           (-30.0 30.0)
  end
  begin
     id 17 
     name lclavicle
     direction 0.9638 0.179341 0.197297  
     length 4.12888  
     axis 0 0 0   XYZ
    dof ry rz
    limits (-20.0 10.0)
           (0.0 20.0)
  end
  begin
     id 18 
     name lhumerus
     direction 1 -4.48972e-011 -2.47351e-027   
     length 5.01834   
     axis -180 -30 -90   XYZ
    dof rx ry rz
    limits (-60.0 90.0)
           (-90.0 90.0)
           (-90.0 90.0)
  end
  begin
     id 19
     name lradius
     direction 1 -4.48965e-011 1.51591e-026   
     length 3.4869   
     axis -180 -30 -90   XYZ
    dof rx
    limits (-10.0 170.0)
  end
  begin
     id 20
     name lwrist
     direction 1 -4.48957e-011 2.70032e-026   
     length 1.74345   
     axis -1.81515e-014 90 90   XYZ
    dof ry
    limits (-180.0 0.0)
 end
  begin
     id 21 
     name lhand
     direction 1 -4.48951e-011 5.40064e-026   
     length 0.76799   
     axis -3.44607e-014 90 90   XYZ
    dof rx rz
    limits (-90.0 90.0)
           (-45.0 45.0)
  end
  begin
     id 22 
     name lfingers
     direction 1 -4.48971e-011 1.08013e-025   
     length 0.619174   
     axis -6.89214e-014 90 90   XYZ
    dof rx
    limits (0.0 90.0)
  end
  begin
     id 23
     name lthumb
     direction 0.707107 -6.34931e-011 0.707107   
     length 0.889013   
     axis -90 45 2.85299e-015   XYZ
    dof rx rz
    limits (-45.0 45.0)
           (-45.0 45.0)
  end
  begin
     id 24 
     name rclavicle
     direction -0.961409 0.252588 0.109054   
     length 4.04305  
     axis 0 0 0   XYZ 
    dof ry rz
    limits (-10.0 20.0)
           (-20.0 0.0)
  end
  begin
     id 25 
     name rhumerus
     direction -1 -4.4897e-011 1.33872e-017  
     length 4.70164   
     axis -180 30 90   XYZ
    dof rx ry rz
    limits (-90.0 60.0)
           (-90.0 90.0)
           (-90.0 90.0)
  end
  begin
     id 26 
     name rradius
     direction -1 -4.48954e-011 1.83844e-026   
     length 3.49911   
     axis -180 30 90   XYZ
    dof rx
    limits (-10.0 170.0)
  end
  begin
     id 27 
     name rwrist
     direction -1 -4.49008e-011 2.70032e-026   
     length 1.74955   
     axis -1.81515e-014 -90 -90   XYZ
    dof ry
    limits (-180.0 0.0)
  end
  begin
     id 28
     name rhand
     direction -1 -4.48916e-011 5.40064e-026   
     length 0.739335   
     axis -3.44607e-014 -90 -90   XYZ
    dof rx rz
    limits (-90.0 90.0)
           (-45.0 45.0)
  end
  begin
     id 29
     name rfingers
     direction -1 -4.48987e-011 1.08013e-025   
     length 0.596071   
     axis -6.89214e-014 -90 -90   XYZ
    dof rx
    limits (0.0 90.0)
  end
  begin
     id 30
     name rthumb
     direction -0.707107 -6.34935e-011 0.707107   
     length 0.855843   
     axis -90 -45 -2.85299e-015   XYZ
    dof rx rz
    limits (-45.0 45.0)
           (-45.0 45.0)
  end
:hierarchy
  begin
    root lhipjoint rhipjoint lowerback
    lhipjoint lfemur
    lfemur ltibia
    ltibia lfoot
    lfoot ltoes
    rhipjoint rfemur
    rfemur rtibia
    rtibia rfoot
    rfoot rtoes
    lowerback upperback
    upperback thorax
    thorax lowerneck lclavicle rclavicle
    lowerneck upperneck
    upperneck head
    lclavicle lhumerus
    lhumerus lradius
    lradius lwrist
    lwrist lhand lthumb
    lhand lfingers
    rclavicle rhumerus
    rhumerus rradius
    rradius rwrist
    rwrist rhand rthumb
    rhand rfingers
  end

#!OML:ASF I:\salsa\salsa 7_09\Patient 1\Session 1\dancermale.ASF
:FULLY-SPECIFIED
:DEGREES
141
root -13.7798 17.4767 0.461059 107.855 93.0022 100.302
lowerback -7.1287 1.46884 7.27259
upperback -0.622768 1.40943 -0.251892
thorax 3.53761 0.82114 -4.20703
lowerneck -6.52872 -1.31362 1.47138
upperneck 13.7536 -1.43505 -2.71243
head 5.1746 -0.746587 -1.17099
rclavicle 5.52006e-015 1.09596e-014
rhumerus -48.3006 22.627 -109.881
rradius 108.955
rwrist -12.6337
rhand -13.6924 -3.04916
rfingers 7.12502
rthumb 12.4257 -32.6598
lclavicle 5.52006e-015 1.09596e-014
lhumerus -42.5977 -38.9963 110.798
lradius 103.401
lwrist 8.00957
lhand -10.5389 43.8645
lfingers 7.12502
lthumb 15.4646 73.266
rfemur -5.42402 6.25002 25.0859
rtibia 9.91933
rfoot -16.7689 -11.2503
rtoes 6.61157
lfemur -5.42223 -0.295282 -12.8275
ltibia 12.4044
lfoot -22.7099 6.53627
ltoes 21.343
142
root -13.7526 17.4688 0.495795 108.138 93.0338 100.758
lowerback -6.72311 1.44884 7.40767
upperback -0.710111 1.41221 -0.329458
thorax 3.22441 0.811526 -4.37214
lowerneck -6.3066 -1.27761 1.66922
upperneck 13.6068 -1.39852 -2.79528
head 5.08976 -0.722737 -1.22385
rclavicle -7.05686e-015 -5.59082e-015
rhumerus -48.5328 22.4285 -110.055
rradius 108.91
rwrist -12.5389
rhand -13.7191 -3.01981
rfingers 7.12502
rthumb 12.3999 -32.632
lclavicle -7.05686e-015 -5.59082e-015
lhumerus -42.8591 -39.083 110.875
lradius 103.392
lwrist 8.05762
lhand -10.4355 43.9347
lfingers 7.12502
lthumb 15.5642 73.3284
rfemur -5.24644 6.24492 25.2868
rtibia 10.17
rfoot -17.0124 -11.1246
rtoes 7.33211
lfemur -5.29921 -0.239377 -12.6639
ltibia 12.7224
lfoot -22.8647 6.54854
ltoes 21.0216
143
root -13.7232 17.4607 0.529853 107.644 93.0284 100.354
lowerback -6.73291 1.41439 7.42264
upperback -0.590769 1.35786 -0.323394
thorax 3.34787 0.791718 -4.37832
lowerneck -6.41861 -1.20273 1.67596
upperneck 13.5642 -1.30297 -2.79482
head 5.0979 -0.677547 -1.21967
rclavicle -9.99359e-015 -1.11568e-014
rhumerus -48.4528 22.4318 -109.971
rradius 108.879
rwrist -12.5286
rhand -13.7935 -2.99132
rfingers 7.12502
rthumb 12.3282 -32.6079
lclavicle -9.99359e-015 -1.11568e-014
lhumerus -42.6646 -39.2077 110.805
lradius 103.296
lwrist 8.20208
lhand -10.5505 43.7327
lfingers 7.12502
lthumb 15.4535 73.1349
rfemur -5.19874 6.09197 25.4337
rtibia 10.5032
rfoot -17.232 -10.8951
rtoes 7.46554
lfemur -5.31358 -0.259411 -12.5469
ltibia 13.0832
lfoot -22.9409 6.63328
ltoes 20.2638
144
root -13.6914 17.4526 0.567496 105.05 92.998 97.8372
lowerback -6.58214 1.36082 7.42702
upperback -0.605149 1.29986 -0.343179
thorax 3.24114 0.758741 -4.40996
lowerneck -6.71554 -1.10492 1.51604
upperneck 13.9959 -1.1761 -2.54585
head 5.28824 -0.606894 -1.11355
rclavicle -3.56725e-015 -4.62174e-015
rhumerus -48.5938 22.2393 -109.949
rradius 108.937
rwrist -12.5731
rhand -13.6968 -3.09992
rfingers 7.12502
rthumb 12.4214 -32.7108
lclavicle -3.56725e-015 -4.62174e-015
lhumerus -42.7872 -39.3321 110.928
lradius 103.223
lwrist 8.36888
lhand -10.6881 43.6352
lfingers 7.12502
lthumb 15.321 73.0477
rfemur -5.09781 5.96184 25.5933
rtibia 10.7201
rfoot -17.4372 -10.7841
rtoes 7.81447
lfemur -5.42436 -0.376833 -12.4308
ltibia 13.6207
lfoot -23.0879 6.71358
ltoes 19.4333
145
root -13.6604 17.4441 0.607202 103.467 92.9867 96.3841
lowerback -6.37207 1.30668 7.42479
upperback -0.60643 1.24548 -0.354614
thorax 3.11494 0.726925 -4.42924
lowerneck -6.60342 -1.05485 1.71017
upperneck 13.8185 -1.09896 -2.80479
head 5.21257 -0.576544 -1.21914
rclavicle 1.59338e-015 -1.83876e-014
rhumerus -48.8159 22.1041 -109.96
rradius 109.032
rwrist -12.5731
rhand -13.6744 -3.05854
rfingers 7.12502
rthumb 12.443 -32.6682
lclavicle 1.59338e-015 -1.83876e-014
lhumerus -42.9196 -39.3955 111.009
lradius 103.208
lwrist 8.49861
lhand -10.6093 43.7257
lfingers 7.12502
lthumb 15.3969 73.1324
rfemur -4.89887 5.93858 25.7721
rtibia 10.8466
rfoot -17.6388 -10.6888
rtoes 9.00138
lfemur -5.52601 -0.495652 -12.3123
ltibia 14.3104
lfoot -23.3297 6.83612
ltoes 18.9456
146
root -13.6299 17.4335 0.64563 102.95 92.9869 96.0514
lowerback -6.20818 1.27731 7.45629
upperback -0.520155 1.21358 -0.374669
thorax 3.11006 0.713172 -4.47267
lowerneck -6.48481 -1.01097 1.79124
upperneck 13.5844 -1.03673 -2.94054
head 5.11996 -0.551417 -1.26824
rclavicle -1.91594e-014 -1.88348e-014
rhumerus -48.8948 21.9977 -109.933
rradius 109.067
rwrist -12.5531
rhand -13.6968 -2.77558
rfingers 7.12502
rthumb 12.4215 -32.3865
lclavicle -1.91594e-014 -1.88348e-014
lhumerus -42.8708 -39.5251 111.006
lradius 103.143
lwrist 8.62264
lhand -10.4871 43.7965
lfingers 7.12502
lthumb 15.5145 73.194
rfemur -4.64526 5.95243 25.9572
rtibia 10.976
rfoot -17.8646 -10.5946
rtoes 9.77661
lfemur -5.58081 -0.61419 -12.2042
ltibia 15.0338
lfoot -23.5799 7.01359
ltoes 18.2789
147
root -13.5971 17.4219 0.685809 100.304 92.9927 93.6164
lowerback -6.07864 1.22046 7.3868
upperback -0.386688 1.14469 -0.304281
thorax 3.16469 0.682552 -4.36684
lowerneck -6.62546 -0.967427 1.57377
upperneck 13.6389 -0.97046 -2.81463
head 5.16462 -0.523073 -1.19058
rclavicle -6.2291e-015 3.06128e-014
rhumerus -48.9 21.9573 -109.745
rradius 109.081
rwrist -12.5356
rhand -13.7569 -2.5647
rfingers 7.12502
rthumb 12.3635 -32.1791
lclavicle -6.2291e-015 3.06128e-014
lhumerus -42.7524 -39.6864 111.154
lradius 103.016
lwrist 8.81343
lhand -10.5265 43.9157
lfingers 7.12502
lthumb 15.4766 73.3162
rfemur -4.32893 6.00908 26.2029
rtibia 11.0961
rfoot -18.1616 -10.63
rtoes 10.0418
lfemur -5.66402 -0.744674 -12.0575
ltibia 15.8338
lfoot -23.8085 7.14144
ltoes 17.3086
